<?xml version="1.0" encoding="UTF-8" standalone="no"?>
<!-- Created with Inkscape (http://www.inkscape.org/) -->

<svg
   xmlns:dc="http://purl.org/dc/elements/1.1/"
   xmlns:cc="http://creativecommons.org/ns#"
   xmlns:rdf="http://www.w3.org/1999/02/22-rdf-syntax-ns#"
   xmlns:svg="http://www.w3.org/2000/svg"
   xmlns="http://www.w3.org/2000/svg"
   xmlns:sodipodi="http://sodipodi.sourceforge.net/DTD/sodipodi-0.dtd"
   xmlns:inkscape="http://www.inkscape.org/namespaces/inkscape"
   width="84.462944mm"
   height="31.265591mm"
   viewBox="0 0 84.462944 31.265591"
   version="1.1"
   id="svg8"
   sodipodi:docname="adaps.svg"
   inkscape:version="0.92.5 (2060ec1f9f, 2020-04-08)">
  <defs
     id="defs2" />
  <sodipodi:namedview
     id="base"
     pagecolor="#ffffff"
     bordercolor="#666666"
     borderopacity="1.0"
     inkscape:pageopacity="0.0"
     inkscape:pageshadow="2"
     inkscape:zoom="1.2917801"
     inkscape:cx="536.21599"
     inkscape:cy="-97.614835"
     inkscape:document-units="mm"
     inkscape:current-layer="text817"
     showgrid="false"
     inkscape:window-width="3840"
     inkscape:window-height="2121"
     inkscape:window-x="2560"
     inkscape:window-y="39"
     inkscape:window-maximized="0"
     fit-margin-top="4"
     fit-margin-bottom="4"
     fit-margin-left="0"
     fit-margin-right="0" />
  <metadata
     id="metadata5">
    <rdf:RDF>
      <cc:Work
         rdf:about="">
        <dc:format>image/svg+xml</dc:format>
        <dc:type
           rdf:resource="http://purl.org/dc/dcmitype/StillImage" />
        <dc:title></dc:title>
      </cc:Work>
    </rdf:RDF>
  </metadata>
  <g
     inkscape:label="Layer 1"
     inkscape:groupmode="layer"
     id="layer1"
     transform="translate(-10.271183,-17.533858)">
    <g
       aria-label="AdaPS"
       style="font-style:normal;font-variant:normal;font-weight:normal;font-stretch:normal;font-size:10.58333302px;line-height:1.25;font-family:'Futura Md BT';-inkscape-font-specification:'Futura Md BT';letter-spacing:0px;word-spacing:0px;fill:#000000;fill-opacity:1;stroke:none;stroke-width:0.26458332"
       id="text817">
      <path
         d="m 17.709144,35.809472 h 5.973796 l -2.196248,-4.890313 q -0.190342,-0.468533 -0.395325,-1.068841 -0.204983,-0.614949 -0.409966,-1.361674 -0.1757,0.7028 -0.380683,1.317749 -0.190342,0.600308 -0.395325,1.112766 z m 9.63421,8.418952 -2.430515,-5.519904 h -8.49216 l -2.489082,5.519904 h -3.660414 l 10.380934,-22.2846 10.366292,22.2846 z"
         style="font-style:normal;font-variant:normal;font-weight:normal;font-stretch:normal;font-size:29.98611069px;font-family:'Futura Md BT';-inkscape-font-specification:'Futura Md BT';letter-spacing:-0.45508334px;fill:#479fd1;fill-opacity:1"
         id="path2082" />
      <path
         d="m 42.291293,37.244354 q 0,-2.152323 -1.010275,-3.352939 -0.995632,-1.200616 -2.796556,-1.200616 -1.800923,0 -2.840481,1.244541 -1.024916,1.229899 -1.024916,3.426148 0,2.21089 0.995633,3.411505 0.995632,1.200616 2.811198,1.200616 1.727715,0 2.796556,-1.288466 1.068841,-1.303107 1.068841,-3.440789 z m -0.08785,-15.710496 h 3.177239 V 44.228424 H 42.203443 V 42.4275 q -0.849216,1.200616 -1.991265,1.786282 -1.127408,0.585667 -2.591573,0.585667 -2.942973,0 -4.641405,-2.005907 -1.683791,-2.020549 -1.683791,-5.519904 0,-3.323656 1.727716,-5.358846 1.727715,-2.049832 4.50963,-2.049832 1.698432,0 2.899047,0.717441 1.215258,0.7028 1.771641,2.03519 z"
         style="font-style:normal;font-variant:normal;font-weight:normal;font-stretch:normal;font-size:29.98611069px;font-family:'Futura Md BT';-inkscape-font-specification:'Futura Md BT';letter-spacing:-0.45508334px;fill:#479fd1;fill-opacity:1"
         id="path2084" />
      <path
         d="M 62.378454,44.228424 H 59.201215 V 42.4275 q -0.849216,1.200616 -1.991265,1.786282 -1.127408,0.585667 -2.591573,0.585667 -2.942973,0 -4.641405,-2.005907 -1.68379,-2.020549 -1.68379,-5.519904 0,-3.323656 1.727715,-5.358846 1.727715,-2.049832 4.50963,-2.049832 1.698432,0 2.899048,0.717441 1.215257,0.7028 1.77164,2.03519 v -2.269456 h 3.177239 z m -3.089389,-6.98407 q 0,-2.152323 -1.010274,-3.352939 -0.995633,-1.200616 -2.796557,-1.200616 -1.800923,0 -2.840481,1.244541 -1.024916,1.229899 -1.024916,3.426148 0,2.21089 0.995633,3.411505 0.995632,1.200616 2.811198,1.200616 1.713073,0 2.781914,-1.303107 1.083483,-1.303108 1.083483,-3.426148 z"
         style="font-style:normal;font-variant:normal;font-weight:normal;font-stretch:normal;font-size:29.98611069px;font-family:'Futura Md BT';-inkscape-font-specification:'Futura Md BT';letter-spacing:-0.45508334px;fill:#479fd1;fill-opacity:1"
         id="path2086" />
      <path
         d="m 70.06413,31.753733 h 0.893141 q 2.899047,0 3.865397,-0.629591 0.966349,-0.629591 0.966349,-2.225531 0,-1.713074 -1.039558,-2.415874 -1.024915,-0.702799 -3.792188,-0.702799 H 70.06413 Z m -0.219625,2.855123 v 9.619568 H 66.579416 V 22.79304 h 5.270996 q 2.342665,0 3.440789,0.26355 1.112766,0.248908 1.932698,0.834574 1.010274,0.746725 1.581299,2.020549 0.571025,1.259182 0.571025,2.781914 0,1.522733 -0.571025,2.811198 -0.571025,1.288466 -1.581299,2.020549 -0.819932,0.585666 -1.932698,0.834574 -1.098124,0.248908 -3.440789,0.248908 h -0.688158 z"
         style="font-style:normal;font-variant:normal;font-weight:normal;font-stretch:normal;font-size:29.98611069px;font-family:'Futura Md BT';-inkscape-font-specification:'Futura Md BT';letter-spacing:-0.45508334px;stroke-width:0.26458332"
         id="path2088" />
      <path
         d="m 80.853839,39.938419 2.781914,-1.288466 q 0.395325,1.434883 1.449524,2.196249 1.054199,0.746724 2.694065,0.746724 1.552015,0 2.459798,-0.863858 0.922424,-0.863857 0.922424,-2.313381 0,-1.888774 -3.133314,-3.367581 -0.43925,-0.219625 -0.673516,-0.322116 -3.543281,-1.727716 -4.729255,-3.118673 -1.171333,-1.405599 -1.171333,-3.426147 0,-2.620857 1.771641,-4.246081 1.786282,-1.625223 4.670688,-1.625223 2.371948,0 3.967889,0.922424 1.59594,0.907783 2.21089,2.620856 l -2.723348,1.405599 q -0.644233,-1.010274 -1.420241,-1.478807 -0.761366,-0.468533 -1.756999,-0.468533 -1.405599,0 -2.240173,0.732083 -0.819933,0.732083 -0.819933,1.961982 0,1.932698 3.631131,3.601847 0.278191,0.131775 0.43925,0.204983 3.177239,1.464166 4.363213,2.869765 1.185974,1.390957 1.185974,3.484714 0,3.045464 -1.918057,4.846388 -1.918057,1.786282 -5.183146,1.786282 -2.737989,0 -4.494988,-1.259183 -1.742357,-1.259182 -2.284098,-3.601847 z"
         style="font-style:normal;font-variant:normal;font-weight:normal;font-stretch:normal;font-size:29.98611069px;font-family:'Futura Md BT';-inkscape-font-specification:'Futura Md BT';letter-spacing:-0.45508334px;stroke-width:0.26458332"
         id="path2090" />
    </g>
    <flowRoot
       xml:space="preserve"
       id="flowRoot819"
       style="font-style:normal;font-variant:normal;font-weight:normal;font-stretch:normal;font-size:40px;line-height:1.25;font-family:'Futura Md BT';-inkscape-font-specification:'Futura Md BT';letter-spacing:0px;word-spacing:0px;fill:#000000;fill-opacity:1;stroke:none"><flowRegion
         id="flowRegion821"><rect
           id="rect823"
           width="18.392857"
           height="94.464287"
           x="120.89286"
           y="-32.83746" /></flowRegion><flowPara
         id="flowPara825"></flowPara></flowRoot>  </g>
</svg>
