<?xml version="1.0" encoding="UTF-8" standalone="no"?>
<!-- Created with Inkscape (http://www.inkscape.org/) -->

<svg
   xmlns:dc="http://purl.org/dc/elements/1.1/"
   xmlns:cc="http://creativecommons.org/ns#"
   xmlns:rdf="http://www.w3.org/1999/02/22-rdf-syntax-ns#"
   xmlns:svg="http://www.w3.org/2000/svg"
   xmlns="http://www.w3.org/2000/svg"
   xmlns:sodipodi="http://sodipodi.sourceforge.net/DTD/sodipodi-0.dtd"
   xmlns:inkscape="http://www.inkscape.org/namespaces/inkscape"
   width="100.44122mm"
   height="32.944214mm"
   viewBox="0 0 100.44122 32.944214"
   version="1.1"
   id="svg8"
   sodipodi:docname="adapm.svg"
   inkscape:version="0.92.5 (2060ec1f9f, 2020-04-08)">
  <defs
     id="defs2" />
  <sodipodi:namedview
     id="base"
     pagecolor="#ffffff"
     bordercolor="#666666"
     borderopacity="1.0"
     inkscape:pageopacity="0.0"
     inkscape:pageshadow="2"
     inkscape:zoom="2.8"
     inkscape:cx="218.64104"
     inkscape:cy="-165.59008"
     inkscape:document-units="mm"
     inkscape:current-layer="layer1"
     showgrid="false"
     inkscape:window-width="1912"
     inkscape:window-height="2113"
     inkscape:window-x="2560"
     inkscape:window-y="39"
     inkscape:window-maximized="0"
     fit-margin-top="4"
     fit-margin-left="0"
     fit-margin-right="0"
     fit-margin-bottom="4" />
  <metadata
     id="metadata5">
    <rdf:RDF>
      <cc:Work
         rdf:about="">
        <dc:format>image/svg+xml</dc:format>
        <dc:type
           rdf:resource="http://purl.org/dc/dcmitype/StillImage" />
        <dc:title></dc:title>
      </cc:Work>
    </rdf:RDF>
  </metadata>
  <g
     inkscape:label="Layer 1"
     inkscape:groupmode="layer"
     id="layer1"
     transform="translate(-13.504527,-11.94665)">
    <g
       aria-label="AdaPM"
       style="font-style:normal;font-variant:normal;font-weight:normal;font-stretch:normal;font-size:10.58333302px;line-height:1.25;font-family:'Futura Md BT';-inkscape-font-specification:'Futura Md BT';letter-spacing:0px;word-spacing:0px;fill:#000000;fill-opacity:1;stroke:none;stroke-width:0.26458332"
       id="text817">
      <path
         d="m 21.380016,31.062007 h 6.325196 l -2.32544,-5.177978 q -0.201538,-0.496094 -0.418579,-1.131714 -0.217041,-0.651123 -0.434082,-1.441773 -0.186035,0.744141 -0.403076,1.395264 -0.201539,0.63562 -0.41858,1.178223 z m 10.200928,8.914185 -2.573486,-5.844604 h -8.9917 l -2.635498,5.844604 h -3.875733 l 10.991578,-23.59546 10.976075,23.59546 z"
         style="font-size:31.75000191px;letter-spacing:-0.18785417px;word-spacing:0px;fill:#479fd1;fill-opacity:1"
         id="path1991" />
      <path
         d="m 47.702173,32.581295 q 0,-2.278931 -1.069702,-3.550172 -1.054199,-1.27124 -2.96106,-1.27124 -1.90686,0 -3.007568,1.317749 -1.085206,1.302246 -1.085206,3.627686 0,2.340943 1.0542,3.612183 1.054199,1.27124 2.976562,1.27124 1.829346,0 2.96106,-1.364258 1.131714,-1.379761 1.131714,-3.643188 z M 47.609155,15.94665 h 3.364136 v 24.029542 h -3.364136 v -1.90686 q -0.89917,1.27124 -2.108398,1.891358 -1.193726,0.620117 -2.744019,0.620117 -3.116089,0 -4.914429,-2.123902 -1.782837,-2.139404 -1.782837,-5.844605 0,-3.519165 1.829346,-5.674072 1.829346,-2.17041 4.774903,-2.17041 1.79834,0 3.06958,0.759643 1.286743,0.744141 1.875854,2.154907 z"
         style="font-size:31.75000191px;letter-spacing:-0.18785417px;word-spacing:0px;fill:#479fd1;fill-opacity:1"
         id="path1993" />
      <path
         d="m 69.264931,39.976192 h -3.364136 v -1.90686 q -0.89917,1.27124 -2.108399,1.891358 -1.193725,0.620117 -2.744018,0.620117 -3.11609,0 -4.914429,-2.123902 -1.782838,-2.139404 -1.782838,-5.844605 0,-3.519165 1.829346,-5.674072 1.829346,-2.17041 4.774903,-2.17041 1.79834,0 3.06958,0.759643 1.286743,0.744141 1.875855,2.154907 v -2.402954 h 3.364136 z m -3.271119,-7.394897 q 0,-2.278931 -1.069702,-3.550172 -1.054199,-1.27124 -2.96106,-1.27124 -1.90686,0 -3.007568,1.317749 -1.085205,1.302246 -1.085205,3.627686 0,2.340943 1.054199,3.612183 1.054199,1.27124 2.976563,1.27124 1.813843,0 2.945557,-1.379761 1.147216,-1.37976 1.147216,-3.627685 z"
         style="font-size:31.75000191px;letter-spacing:-0.18785417px;word-spacing:0px;fill:#479fd1;fill-opacity:1"
         id="path1995" />
      <path
         d="m 77.696708,26.767696 h 0.945679 q 3.06958,0 4.092774,-0.666626 1.023193,-0.666626 1.023193,-2.356446 0,-1.813843 -1.100708,-2.557983 Q 81.572441,20.4425 78.642387,20.4425 h -0.945679 z m -0.232544,3.023071 v 10.185425 h -3.457153 v -22.69629 h 5.581055 q 2.480469,0 3.643188,0.279053 1.178223,0.26355 2.046387,0.883667 1.069702,0.790649 1.674317,2.139404 0.604614,1.333252 0.604614,2.945557 0,1.612305 -0.604614,2.976563 -0.604615,1.364258 -1.674317,2.139404 -0.868164,0.620117 -2.046387,0.883667 -1.162719,0.26355 -3.643188,0.26355 h -0.728638 z"
         style="font-size:31.75000191px;letter-spacing:-1.40758348px"
         id="path1997" />
      <path
         d="m 108.00812,28.767574 q -0.062,-0.26355 -0.20154,-1.457276 -0.12402,-0.992187 -0.21704,-1.64331 -0.13952,0.775146 -0.40307,1.550293 -0.24805,0.775146 -0.63562,1.581298 l -5.93763,12.092286 -5.937619,-12.340332 q -0.37207,-0.759644 -0.651123,-1.472779 -0.263549,-0.713135 -0.465088,-1.410766 -0.0155,0.713134 -0.124023,1.503784 -0.09302,0.775146 -0.294556,1.627807 l -2.43396,11.177613 h -3.395142 l 5.364014,-23.657472 6.697266,14.324708 q 0.15503,0.341065 0.465088,1.131714 0.325563,0.79065 0.775143,1.953369 0.32557,-0.976684 1.0232,-2.480468 0.18603,-0.403077 0.27905,-0.620118 l 6.54224,-14.309205 5.48803,23.657472 h -3.42614 z"
         style="font-size:31.75000191px;letter-spacing:-1.40758348px"
         id="path1999" />
    </g>
  </g>
</svg>
