<?xml version="1.0" encoding="UTF-8" standalone="no"?>
<!-- Created with Inkscape (http://www.inkscape.org/) -->

<svg
   xmlns:dc="http://purl.org/dc/elements/1.1/"
   xmlns:cc="http://creativecommons.org/ns#"
   xmlns:rdf="http://www.w3.org/1999/02/22-rdf-syntax-ns#"
   xmlns:svg="http://www.w3.org/2000/svg"
   xmlns="http://www.w3.org/2000/svg"
   xmlns:sodipodi="http://sodipodi.sourceforge.net/DTD/sodipodi-0.dtd"
   xmlns:inkscape="http://www.inkscape.org/namespaces/inkscape"
   width="86.542664mm"
   height="37.833698mm"
   viewBox="0 0 86.542664 37.833698"
   version="1.1"
   id="svg8"
   sodipodi:docname="lapse2.svg"
   inkscape:version="0.92.5 (2060ec1f9f, 2020-04-08)">
  <defs
     id="defs2" />
  <sodipodi:namedview
     id="base"
     pagecolor="#ffffff"
     bordercolor="#666666"
     borderopacity="1.0"
     inkscape:pageopacity="0.0"
     inkscape:pageshadow="2"
     inkscape:zoom="1.7273512"
     inkscape:cx="155.9049"
     inkscape:cy="-92.142232"
     inkscape:document-units="mm"
     inkscape:current-layer="text1368"
     showgrid="false"
     inkscape:window-width="3840"
     inkscape:window-height="2121"
     inkscape:window-x="2560"
     inkscape:window-y="39"
     inkscape:window-maximized="0" />
  <metadata
     id="metadata5">
    <rdf:RDF>
      <cc:Work
         rdf:about="">
        <dc:format>image/svg+xml</dc:format>
        <dc:type
           rdf:resource="http://purl.org/dc/dcmitype/StillImage" />
        <dc:title />
      </cc:Work>
    </rdf:RDF>
  </metadata>
  <g
     inkscape:label="Layer 1"
     inkscape:groupmode="layer"
     id="layer1"
     transform="translate(-7.6586432,-4.8993349)">
    <g
       aria-label="lapse2"
       style="font-style:normal;font-weight:normal;font-size:10.58333302px;line-height:1.25;font-family:sans-serif;letter-spacing:0px;word-spacing:0px;fill:#000000;fill-opacity:1;stroke:none;stroke-width:0.26458332"
       id="text1368">
      <path
         d="m 15.134166,32.038689 v -1.8288 h 3.6068 v -15.0114 h -3.2512 v -1.8288 h 5.2832 v 16.8402 h 3.2512 v 1.8288 z"
         style="font-style:normal;font-variant:normal;font-weight:normal;font-stretch:normal;font-size:25.39999962px;font-family:Iosevka;-inkscape-font-specification:Iosevka;stroke-width:0.26458332"
         id="path925" />
      <path
         d="m 31.161517,32.241889 q -0.7874,0 -1.5494,-0.254 -0.762,-0.254 -1.3208,-0.8382 -0.5588,-0.5842 -0.8128,-1.3462 -0.2286,-0.762 -0.2286,-1.5494 0,-0.7874 0.2794,-1.524 0.2794,-0.762 0.8636,-1.2954 0.5842,-0.5588 1.2954,-0.8636 0.7366,-0.3302 1.4986,-0.4572 0.7874,-0.127 1.5748,-0.127 h 2.3114 v -1.1684 q 0,-0.5588 -0.2032,-1.0668 -0.2032,-0.5334 -0.635,-0.889 -0.4064,-0.3556 -0.9398,-0.508 -0.5334,-0.1524 -1.0922,-0.1524 -0.635,0 -1.27,0.2286 -0.635,0.2032 -1.0668,0.7366 -0.4318,0.5334 -0.508,1.1684 l -1.9558,-0.4572 q 0.1524,-1.0668 0.889,-1.9304 0.7366,-0.889 1.778,-1.2192 1.0668,-0.3556 2.1336,-0.3556 0.9398,0 1.8542,0.254 0.9144,0.254 1.6256,0.8636 0.7366,0.6096 1.0668,1.4986 0.3556,0.889 0.3556,1.8288 v 9.2202 h -2.032 v -1.905 q -0.1778,0.3048 -0.4064,0.5842 -0.635,0.762 -1.5748,1.143 -0.9398,0.381 -1.9304,0.381 z m -0.6096,-2.032 q 0.6096,0.2032 1.2446,0.2032 0.6604,0 1.2954,-0.2286 0.635,-0.2286 1.0922,-0.7112 0.4826,-0.508 0.6858,-1.143 0.2032,-0.6604 0.2032,-1.3208 v -1.1938 h -2.3114 q -0.5842,0 -1.1938,0.1016 -0.5842,0.1016 -1.1176,0.4064 -0.5334,0.2794 -0.8636,0.8128 -0.3048,0.508 -0.3048,1.1176 0,0.6096 0.3302,1.1684 0.3556,0.5588 0.9398,0.7874 z"
         style="font-style:normal;font-variant:normal;font-weight:normal;font-stretch:normal;font-size:25.39999962px;font-family:Iosevka;-inkscape-font-specification:Iosevka;stroke-width:0.26458332"
         id="path927" />
      <path
         d="m 40.153068,37.245689 v -18.669 h 2.032 v 1.9304 q 0.254,-0.4572 0.5842,-0.8636 0.5334,-0.635 1.2954,-0.9398 0.762,-0.3302 1.5494,-0.3302 1.0414,0 1.9558,0.508 0.9144,0.4826 1.4478,1.3716 0.5588,0.889 0.762,1.905 0.2286,0.9906 0.2286,2.0066 v 2.286 q 0,1.016 -0.2286,2.032 -0.2032,0.9906 -0.762,1.8796 -0.5334,0.889 -1.4478,1.397 -0.9144,0.4826 -1.9558,0.4826 -0.7874,0 -1.5494,-0.3048 -0.762,-0.3302 -1.2954,-0.9652 -0.3302,-0.4064 -0.5842,-0.8636 v 7.1374 z m 4.8514,-6.8326 q 0.6858,0 1.3208,-0.3302 0.635,-0.3556 0.9906,-0.9652 0.381,-0.6096 0.508,-1.2954 0.1524,-0.6858 0.1524,-1.3716 v -2.286 q 0,-0.6858 -0.1524,-1.3716 -0.127,-0.6858 -0.508,-1.2954 -0.3556,-0.6096 -0.9906,-0.9398 -0.635,-0.3556 -1.3208,-0.3556 -0.6858,0 -1.2954,0.3556 -0.6096,0.3556 -0.9398,0.9652 -0.3302,0.6096 -0.4572,1.2954 -0.127,0.6604 -0.127,1.3462 v 2.286 q 0,0.6858 0.127,1.3716 0.127,0.6604 0.4572,1.27 0.3302,0.6096 0.9398,0.9652 0.6096,0.3556 1.2954,0.3556 z m -3.5814,-6.2738 v -0.1016 z"
         style="font-style:normal;font-variant:normal;font-weight:normal;font-stretch:normal;font-size:25.39999962px;font-family:Iosevka;-inkscape-font-specification:Iosevka;stroke-width:0.26458332"
         id="path929" />
      <path
         d="m 57.628219,32.241889 q -1.016,0 -2.032,-0.2794 -0.9906,-0.2794 -1.752599,-1.016 -0.762,-0.7366 -1.0668,-1.7018 l 1.904999,-0.6096 q 0.2032,0.5842 0.6604,1.016 0.4572,0.4318 1.0414,0.6096 0.6096,0.1524 1.2446,0.1524 0.635,0 1.27,-0.1524 0.635,-0.1524 1.1176,-0.635 0.4826,-0.508 0.4826,-1.143 0,-0.9398 -0.8382,-1.4986 -0.8128,-0.5842 -1.7526,-0.635 -0.9144,-0.0762 -1.8288,-0.254 -0.9144,-0.2032 -1.676399,-0.762 -0.762,-0.5588 -1.1684,-1.397 -0.4064,-0.8636 -0.4064,-1.8034 0,-0.8636 0.4064,-1.651 0.4318,-0.7874 1.1684,-1.27 0.761999,-0.4826 1.600199,-0.6604 0.8636,-0.1778 1.7272,-0.1778 1.016,0 2.0066,0.2794 1.016,0.2794 1.778,1.016 0.762,0.7366 1.0668,1.7018 l -1.905,0.6096 q -0.2032,-0.5842 -0.6604,-1.016 -0.4572,-0.4318 -1.0668,-0.5842 -0.5842,-0.1778 -1.2192,-0.1778 -0.635,0 -1.27,0.1524 -0.635,0.1524 -1.1176,0.6604 -0.4826,0.4826 -0.4826,1.1176 0,0.9398 0.8128,1.524 0.8382,0.5588 1.7526,0.635 0.9398,0.0508 1.8542,0.254 0.9144,0.1778 1.6764,0.7366 0.762,0.5588 1.1684,1.4224 0.4064,0.8382 0.4064,1.778 0,0.8636 -0.4318,1.651 -0.4064,0.7874 -1.1684,1.27 -0.7366,0.4826 -1.6002,0.6604 -0.8382,0.1778 -1.7018,0.1778 z"
         style="font-style:normal;font-variant:normal;font-weight:normal;font-stretch:normal;font-size:25.39999962px;font-family:Iosevka;-inkscape-font-specification:Iosevka;stroke-width:0.26458332"
         id="path931" />
      <path
         d="m 70.556771,32.241889 q -1.1176,0 -2.159,-0.4064 -1.0414,-0.4064 -1.7526,-1.27 -0.7112,-0.8636 -1.016,-1.9304 -0.2794,-1.0922 -0.2794,-2.1844 v -2.286 q 0,-1.0922 0.2794,-2.1336 0.2794,-1.0668 0.9398,-1.9304 0.6858,-0.8636 1.7018,-1.2954 1.016,-0.4318 2.1082,-0.4318 1.0922,0 2.1082,0.4318 1.016,0.4318 1.6764,1.2954 0.6858,0.8636 0.9652,1.9304 0.2794,1.0414 0.2794,2.1336 v 2.0574 h -8.0264 v 0.2286 q 0,0.7112 0.1524,1.4224 0.1778,0.7112 0.5842,1.3208 0.4064,0.5842 1.0668,0.9144 0.6604,0.3048 1.3716,0.3048 0.6858,0 1.3208,-0.2794 0.6604,-0.3048 1.0668,-0.889 0.4318,-0.5842 0.635,-1.2446 l 1.8542,0.7366 q -0.3302,1.0414 -1.0414,1.8796 -0.7112,0.8382 -1.7526,1.2446 -1.016,0.381 -2.0828,0.381 z m -3.175,-7.8486 h 5.9944 v -0.2286 q 0,-0.7112 -0.1524,-1.397 -0.127,-0.6858 -0.508,-1.27 -0.381,-0.6096 -1.016,-0.9398 -0.6096,-0.3556 -1.3208,-0.3556 -0.7112,0 -1.3462,0.3556 -0.6096,0.3302 -0.9906,0.9398 -0.381,0.5842 -0.5334,1.27 -0.127,0.6858 -0.127,1.397 z"
         style="font-style:normal;font-variant:normal;font-weight:normal;font-stretch:normal;font-size:25.39999962px;font-family:Iosevka;-inkscape-font-specification:Iosevka;stroke-width:0.26458332"
         id="path933" />
      <path
         d="m 77.998922,32.038689 v -0.0254 q 0,-1.3462 0.1524,-2.6924 0.1778,-1.3462 0.7874,-2.54 0.635,-1.2192 1.5748,-2.1844 0.9398,-0.9652 1.9812,-1.8034 1.0668,-0.8382 1.905,-1.9558 0.8636,-1.1176 0.8636,-2.4638 0,-0.635 -0.254,-1.2446 -0.2286,-0.6096 -0.8128,-0.9398 -0.5588,-0.3302 -1.1938,-0.3302 -0.5588,0 -1.0668,0.2794 -0.508,0.254 -0.8128,0.762 -0.2794,0.508 -0.3556,1.0668 l -2.8956,-0.6604 q 0.2032,-1.1938 0.9144,-2.1844 0.7366,-1.016 1.8796,-1.4732 1.143,-0.4826 2.3368,-0.4826 1.0414,0 2.032,0.3302 1.016,0.3302 1.7526,1.0922 0.7366,0.762 1.0922,1.7526 0.381,0.9906 0.381,2.032 0,1.3208 -0.635,2.5654 -0.6096,1.2192 -1.5748,2.159 -0.9398,0.9398 -1.9558,1.8288 -0.9906,0.889 -1.8034,2.0066 -0.7874,1.0922 -1.0414,2.413 h 6.9088 v 2.6924 z"
         style="font-style:normal;font-variant:normal;font-weight:bold;font-stretch:normal;font-size:25.39999962px;font-family:Iosevka;-inkscape-font-specification:'Iosevka Bold';fill:#479fd1;fill-opacity:1"
         id="path935" />
    </g>
    <flowRoot
       xml:space="preserve"
       id="flowRoot2018"
       style="font-style:normal;font-weight:normal;font-size:40px;line-height:1.25;font-family:sans-serif;letter-spacing:0px;word-spacing:0px;fill:#000000;fill-opacity:1;stroke:none"><flowRegion
         id="flowRegion2020"><rect
           id="rect2022"
           width="338.94925"
           height="121.17027"
           x="31.111284"
           y="27.07493" /></flowRegion><flowPara
         id="flowPara2024" /></flowRoot>    <flowRoot
       xml:space="preserve"
       id="flowRoot2026"
       style="font-style:normal;font-weight:normal;font-size:40px;line-height:1.25;font-family:sans-serif;letter-spacing:0px;word-spacing:0px;fill:#000000;fill-opacity:1;stroke:none"><flowRegion
         id="flowRegion2028"><rect
           id="rect2030"
           width="255.88312"
           height="98.41658"
           x="38.20879"
           y="39.35833" /></flowRegion><flowPara
         id="flowPara2032" /></flowRoot>    <flowRoot
       xml:space="preserve"
       id="flowRoot2034"
       style="font-style:normal;font-weight:normal;font-size:40px;line-height:1.25;font-family:sans-serif;letter-spacing:0px;word-spacing:0px;fill:#000000;fill-opacity:1;stroke:none"><flowRegion
         id="flowRegion2036"><rect
           id="rect2038"
           width="320.14334"
           height="137.78322"
           x="34.156342"
           y="27.200989" /></flowRegion><flowPara
         id="flowPara2040" /></flowRoot>  </g>
</svg>
