<?xml version="1.0" encoding="UTF-8" standalone="no"?>
<!-- Created with Inkscape (http://www.inkscape.org/) -->

<svg
   xmlns:dc="http://purl.org/dc/elements/1.1/"
   xmlns:cc="http://creativecommons.org/ns#"
   xmlns:rdf="http://www.w3.org/1999/02/22-rdf-syntax-ns#"
   xmlns:svg="http://www.w3.org/2000/svg"
   xmlns="http://www.w3.org/2000/svg"
   xmlns:sodipodi="http://sodipodi.sourceforge.net/DTD/sodipodi-0.dtd"
   xmlns:inkscape="http://www.inkscape.org/namespaces/inkscape"
   width="5.603838cm"
   height="3.3844249cm"
   viewBox="0 0 56.03838 33.844248"
   version="1.1"
   id="svg8"
   inkscape:version="0.92.5 (2060ec1f9f, 2020-04-08)"
   sodipodi:docname="logo.svg">
  <defs
     id="defs2" />
  <sodipodi:namedview
     id="base"
     pagecolor="#ffffff"
     bordercolor="#666666"
     borderopacity="1.0"
     inkscape:pageopacity="0.0"
     inkscape:pageshadow="2"
     inkscape:zoom="2.8"
     inkscape:cx="128.71645"
     inkscape:cy="-2.2664773"
     inkscape:document-units="mm"
     inkscape:current-layer="layer1"
     showgrid="false"
     inkscape:window-width="2560"
     inkscape:window-height="1401"
     inkscape:window-x="0"
     inkscape:window-y="39"
     inkscape:window-maximized="0"
     inkscape:lockguides="false"
     fit-margin-top="0.5"
     fit-margin-right="0"
     fit-margin-left="0"
     fit-margin-bottom="0.5"
     units="cm" />
  <metadata
     id="metadata5">
    <rdf:RDF>
      <cc:Work
         rdf:about="">
        <dc:format>image/svg+xml</dc:format>
        <dc:type
           rdf:resource="http://purl.org/dc/dcmitype/StillImage" />
        <dc:title></dc:title>
      </cc:Work>
    </rdf:RDF>
  </metadata>
  <g
     inkscape:label="Layer 1"
     inkscape:groupmode="layer"
     id="layer1"
     transform="translate(-28.553422,-10.595259)">
    <g
       aria-label="NuPS"
       style="font-style:normal;font-weight:normal;font-size:10.58333302px;line-height:1.25;font-family:sans-serif;letter-spacing:0px;word-spacing:0px;fill:#000000;fill-opacity:1;stroke:none;stroke-width:0.26458332"
       id="text1368">
      <path
         d="m 28.553422,39.185509 v -2.54 h 1.36525 v -18.25625 h -1.36525 v -2.54 h 4.47675 l 6.1595,18.63725 q -0.0635,-1.143 -0.1905,-2.31775 -0.09525,-1.17475 -0.15875,-2.31775 -0.0635,-1.17475 -0.127,-2.31775 -0.03175,-1.17475 -0.03175,-2.3495 v -6.7945 h -1.3335 v -2.54 h 5.55625 v 2.54 h -1.36525 v 20.79625 h -3.1115 l -6.1595,-18.63725 q 0.0635,1.143 0.15875,2.31775 0.127,1.17475 0.1905,2.3495 0.0635,1.143 0.09525,2.31775 0.0635,1.143 0.0635,2.31775 v 6.7945 h 1.3335 v 2.54 z"
         style="font-style:normal;font-variant:normal;font-weight:500;font-stretch:normal;font-size:31.75px;font-family:'Iosevka Slab';-inkscape-font-specification:'Iosevka Slab Medium';fill:#479fd1;fill-opacity:1"
         id="path3424" />
      <path
         d="m 49.611548,39.439509 q -0.762,0 -1.524,-0.254 -0.73025,-0.22225 -1.30175,-0.73025 -0.53975,-0.53975 -0.92075,-1.2065 -0.34925,-0.66675 -0.5715,-1.397 -0.22225,-0.73025 -0.28575,-1.49225 -0.0635,-0.762 -0.0635,-1.524 v -7.9375 h -1.36525 v -2.54 h 4.22275 v 10.4775 q 0,0.47625 0.03175,0.9525 0.0635,0.47625 0.1905,0.92075 0.127,0.4445 0.34925,0.889 0.254,0.41275 0.60325,0.73025 0.381,0.28575 0.8255,0.4445 0.47625,0.127 0.9525,0.127 0.47625,0 0.92075,-0.127 0.47625,-0.15875 0.8255,-0.4445 0.381,-0.3175 0.60325,-0.73025 0.254,-0.4445 0.381,-0.889 0.127,-0.4445 0.15875,-0.92075 0.0635,-0.47625 0.0635,-0.9525 v -7.9375 h -1.3335 v -2.54 h 4.191 v 14.2875 h 1.36525 v 2.54 h -4.22275 v -2.76225 q -0.22225,0.635 -0.60325,1.2065 -0.381,0.5715 -0.92075,1.016 -0.53975,0.41275 -1.23825,0.60325 -0.66675,0.1905 -1.3335,0.1905 z"
         style="font-style:normal;font-variant:normal;font-weight:500;font-stretch:normal;font-size:31.75px;font-family:'Iosevka Slab';-inkscape-font-specification:'Iosevka Slab Medium';fill:#479fd1;fill-opacity:1"
         id="path3426" />
      <path
         d="m 59.144424,39.185509 v -2.54 h 1.3335 v -18.25625 h -1.3335 v -2.54 h 6.731 q 0.889,0 1.74625,0.1905 0.889,0.1905 1.651,0.635 0.762,0.4445 1.3335,1.143 0.5715,0.6985 0.889,1.524 0.34925,0.79375 0.47625,1.68275 0.127,0.889 0.127,1.778 0,0.889 -0.127,1.778 -0.127,0.85725 -0.47625,1.68275 -0.3175,0.79375 -0.889,1.49225 -0.5715,0.6985 -1.3335,1.17475 -0.762,0.4445 -1.651,0.635 -0.85725,0.15875 -1.74625,0.15875 h -2.54 v 6.9215 h 2.06375 v 2.54 z m 4.191,-12.0015 h 2.54 q 0.53975,0 1.04775,-0.127 0.508,-0.15875 0.92075,-0.47625 0.41275,-0.3175 0.66675,-0.762 0.28575,-0.4445 0.4445,-0.9525 0.1905,-0.508 0.22225,-1.016 0.0635,-0.53975 0.0635,-1.04775 0,-0.53975 -0.0635,-1.04775 -0.03175,-0.53975 -0.22225,-1.016 -0.15875,-0.508 -0.4445,-0.9525 -0.254,-0.47625 -0.66675,-0.79375 -0.41275,-0.3175 -0.92075,-0.4445 -0.508,-0.15875 -1.04775,-0.15875 h -2.54 z"
         style="font-style:normal;font-variant:normal;font-weight:500;font-stretch:normal;font-size:31.75px;font-family:'Iosevka Slab';-inkscape-font-specification:'Iosevka Slab Medium';letter-spacing:-0.84931248px;stroke-width:0.26458332"
         id="path3428" />
      <path
         d="m 79.448302,39.439509 q -0.635,0 -1.27,-0.127 -0.60325,-0.127 -1.17475,-0.41275 -0.53975,-0.28575 -1.016,-0.6985 -0.4445,-0.4445 -0.79375,-0.98425 v 1.9685 h -2.50825 v -5.74675 h 2.50825 q 0,0.66675 0.1905,1.3335 0.1905,0.66675 0.635,1.17475 0.47625,0.508 1.11125,0.73025 0.66675,0.22225 1.3335,0.22225 0.6985,0 1.3335,-0.22225 0.635,-0.254 1.0795,-0.762 0.4445,-0.53975 0.635,-1.2065 0.22225,-0.66675 0.22225,-1.3335 0,-0.79375 -0.34925,-1.524 -0.3175,-0.73025 -0.85725,-1.30175 -0.53975,-0.5715 -1.23825,-0.9525 -0.66675,-0.41275 -1.36525,-0.79375 -0.66675,-0.381 -1.3335,-0.79375 -0.66675,-0.41275 -1.27,-0.92075 -0.5715,-0.53975 -1.0795,-1.143 -0.508,-0.60325 -0.85725,-1.30175 -0.34925,-0.6985 -0.53975,-1.4605 -0.1905,-0.79375 -0.1905,-1.5875 0,-0.6985 0.127,-1.42875 0.15875,-0.73025 0.381,-1.397 0.254,-0.6985 0.66675,-1.30175 0.41275,-0.635 0.98425,-1.04775 0.60325,-0.4445 1.30175,-0.635 0.73025,-0.1905 1.4605,-0.1905 0.635,0 1.23825,0.127 0.635,0.127 1.17475,0.41275 0.5715,0.28575 1.016,0.73025 0.4445,0.4445 0.79375,0.9525 v -1.9685 h 2.50825 v 5.74675 h -2.50825 q 0,-0.66675 -0.1905,-1.3335 -0.1905,-0.66675 -0.635,-1.143 -0.4445,-0.508 -1.11125,-0.73025 -0.635,-0.254 -1.30175,-0.254 -0.66675,0 -1.30175,0.254 -0.60325,0.254 -1.016,0.79375 -0.381,0.508 -0.5715,1.17475 -0.15875,0.635 -0.15875,1.30175 0,0.762 0.3175,1.524 0.3175,0.73025 0.85725,1.30175 0.53975,0.53975 1.2065,0.9525 0.6985,0.41275 1.397,0.79375 0.6985,0.381 1.3335,0.79375 0.66675,0.41275 1.27,0.92075 0.60325,0.508 1.11125,1.143 0.508,0.60325 0.85725,1.30175 0.34925,0.6985 0.53975,1.4605 0.1905,0.762 0.1905,1.55575 0,0.73025 -0.15875,1.49225 -0.127,0.73025 -0.41275,1.42875 -0.254,0.66675 -0.6985,1.30175 -0.4445,0.60325 -1.04775,1.04775 -0.60325,0.41275 -1.36525,0.5715 -0.73025,0.1905 -1.4605,0.1905 z"
         style="font-style:normal;font-variant:normal;font-weight:500;font-stretch:normal;font-size:31.75px;font-family:'Iosevka Slab';-inkscape-font-specification:'Iosevka Slab Medium';letter-spacing:-0.84931248px;stroke-width:0.26458332"
         id="path3430" />
    </g>
  </g>
</svg>
